<svg xmlns="http://www.w3.org/2000/svg" viewBox="0 0 1400 900" width="1400" height="900">
  <defs>
    <style>
      .bg { fill: #FAFAFA; }
      .sidebar-bg { fill: #FFFFFF; }
      .card-bg { fill: #FFFFFF; }
      .primary { fill: #00529F; }
      .primary-light { fill: #E3F2FD; }
      .accent { fill: #FFD520; }
      .success { fill: #2E7D32; }
      .success-light { fill: #E8F5E9; }
      .info { fill: #0288D1; }
      .info-light { fill: #E1F5FE; }
      .warning { fill: #ED6C02; }
      .warning-light { fill: #FFF3E0; }
      .text-dark { fill: #1A1A1A; }
      .text-medium { fill: #666666; }
      .text-light { fill: #999999; }
      .border { stroke: #E5E5E5; fill: none; }
      .border-light { stroke: #CCCCCC; fill: none; }
      .shadow { filter: drop-shadow(0 2px 4px rgba(0,0,0,0.08)); }
      .font-primary { font-family: 'Montserrat', Arial, sans-serif; }
      .font-secondary { font-family: 'Lato', Arial, sans-serif; }
    </style>
  </defs>

  <!-- Background -->
  <rect class="bg" width="1400" height="900"/>

  <!-- Sidebar -->
  <rect class="sidebar-bg" x="0" y="0" width="260" height="900"/>
  <line class="border" x1="260" y1="0" x2="260" y2="900"/>

  <!-- Sidebar Logo -->
  <rect class="primary" x="24" y="24" width="40" height="40" rx="8"/>
  <text x="44" y="50" fill="white" font-size="16" font-weight="bold" text-anchor="middle">A</text>
  <text class="font-primary primary" x="74" y="50" font-size="14" font-weight="700" fill="#00529F">AutoService</text>

  <!-- Sidebar Nav -->
  <rect fill="#F2F2F2" x="16" y="100" width="228" height="40" rx="8"/>
  <text class="font-secondary text-medium" x="56" y="125" font-size="13">Dashboard</text>

  <rect class="primary-light" x="16" y="148" width="228" height="40" rx="8"/>
  <text class="font-secondary" x="56" y="173" font-size="13" font-weight="500" fill="#00529F">Customers</text>

  <rect fill="#FFFFFF" x="16" y="196" width="228" height="40" rx="8"/>
  <text class="font-secondary text-medium" x="56" y="221" font-size="13">Referrals</text>

  <rect fill="#FFFFFF" x="16" y="244" width="228" height="40" rx="8"/>
  <text class="font-secondary text-medium" x="56" y="269" font-size="13">Inquiries</text>

  <!-- Header -->
  <rect class="card-bg" x="260" y="0" width="1140" height="72"/>
  <line class="border" x1="260" y1="72" x2="1400" y2="72"/>
  <text class="font-primary text-dark" x="300" y="45" font-size="22" font-weight="700">Customers</text>

  <!-- Header Buttons -->
  <rect class="border-light" x="1150" y="20" width="100" height="36" rx="8" fill="white"/>
  <text class="font-secondary text-dark" x="1200" y="43" font-size="12" text-anchor="middle">Export</text>

  <rect class="primary" x="1265" y="20" width="115" height="36" rx="8"/>
  <text x="1322" y="43" fill="white" font-size="12" font-weight="600" text-anchor="middle" class="font-secondary">+ Add Customer</text>

  <!-- Stats Cards -->
  <rect class="card-bg shadow" x="300" y="100" width="240" height="100" rx="12"/>
  <text class="font-secondary text-medium" x="324" y="130" font-size="10" font-weight="600" letter-spacing="0.5">TOTAL CUSTOMERS</text>
  <text class="font-primary text-dark" x="324" y="165" font-size="28" font-weight="700">248</text>
  <text class="font-secondary success" x="324" y="185" font-size="11">+12 this month</text>

  <rect class="card-bg shadow" x="560" y="100" width="240" height="100" rx="12"/>
  <text class="font-secondary text-medium" x="584" y="130" font-size="10" font-weight="600" letter-spacing="0.5">MY CUSTOMERS</text>
  <text class="font-primary text-dark" x="584" y="165" font-size="28" font-weight="700">156</text>
  <text class="font-secondary success" x="584" y="185" font-size="11">+8 this month</text>

  <rect class="card-bg shadow" x="820" y="100" width="240" height="100" rx="12"/>
  <text class="font-secondary text-medium" x="844" y="130" font-size="10" font-weight="600" letter-spacing="0.5">REFERRED TO ME</text>
  <text class="font-primary text-dark" x="844" y="165" font-size="28" font-weight="700">67</text>
  <text class="font-secondary success" x="844" y="185" font-size="11">+4 this month</text>

  <rect class="card-bg shadow" x="1080" y="100" width="240" height="100" rx="12"/>
  <text class="font-secondary text-medium" x="1104" y="130" font-size="10" font-weight="600" letter-spacing="0.5">ACTIVE THIS MONTH</text>
  <text class="font-primary text-dark" x="1104" y="165" font-size="28" font-weight="700">89</text>
  <text class="font-secondary success" x="1104" y="185" font-size="11">+15%</text>

  <!-- Search Bar -->
  <rect class="border-light" x="300" y="230" width="400" height="44" rx="8" fill="white"/>
  <text class="font-secondary text-light" x="340" y="257" font-size="13">Search by name, email, or phone...</text>

  <!-- Filter Tabs -->
  <rect class="primary-light" x="720" y="230" width="60" height="32" rx="16"/>
  <text class="font-secondary" x="750" y="251" font-size="12" font-weight="500" text-anchor="middle" fill="#00529F">All</text>

  <text class="font-secondary text-medium" x="810" y="251" font-size="12">My Customers</text>
  <text class="font-secondary text-medium" x="920" y="251" font-size="12">Referred</text>

  <!-- Filter Dropdowns -->
  <rect class="border-light" x="1020" y="230" width="120" height="36" rx="8" fill="white"/>
  <text class="font-secondary text-dark" x="1035" y="253" font-size="12">Status: All</text>

  <rect class="border-light" x="1155" y="230" width="140" height="36" rx="8" fill="white"/>
  <text class="font-secondary text-dark" x="1170" y="253" font-size="12">Sort: Name A-Z</text>

  <!-- Table -->
  <rect class="card-bg shadow" x="300" y="290" width="1020" height="520" rx="12"/>

  <!-- Table Header -->
  <rect fill="#FAFAFA" x="300" y="290" width="1020" height="48" rx="12 12 0 0"/>
  <text class="font-secondary text-medium" x="340" y="320" font-size="10" font-weight="600" letter-spacing="0.5">CUSTOMER</text>
  <text class="font-secondary text-medium" x="560" y="320" font-size="10" font-weight="600" letter-spacing="0.5">PHONE</text>
  <text class="font-secondary text-medium" x="720" y="320" font-size="10" font-weight="600" letter-spacing="0.5">OWNERSHIP</text>
  <text class="font-secondary text-medium" x="880" y="320" font-size="10" font-weight="600" letter-spacing="0.5">STATUS</text>
  <text class="font-secondary text-medium" x="1000" y="320" font-size="10" font-weight="600" letter-spacing="0.5">LAST ACTIVITY</text>
  <text class="font-secondary text-medium" x="1150" y="320" font-size="10" font-weight="600" letter-spacing="0.5">ACTIONS</text>

  <!-- Table Row 1 -->
  <line class="border" x1="300" y1="338" x2="1320" y2="338"/>
  <circle class="primary-light" cx="360" cy="375" r="20"/>
  <text class="font-secondary" x="360" y="380" font-size="12" font-weight="600" text-anchor="middle" fill="#00529F">JD</text>
  <text class="font-secondary text-dark" x="395" y="370" font-size="13" font-weight="600">John Doe</text>
  <text class="font-secondary text-medium" x="395" y="388" font-size="11">john.doe@email.com</text>
  <text class="font-secondary text-dark" x="560" y="378" font-size="13">(555) 123-4567</text>
  <rect class="success-light" x="720" y="362" width="90" height="26" rx="13"/>
  <text class="font-secondary success" x="765" y="380" font-size="11" font-weight="600" text-anchor="middle">My Customer</text>
  <rect class="success-light" x="880" y="362" width="55" height="26" rx="13"/>
  <text class="font-secondary success" x="907" y="380" font-size="11" font-weight="600" text-anchor="middle">Active</text>
  <text class="font-secondary text-dark" x="1000" y="378" font-size="13">Today, 2:30 PM</text>

  <!-- Table Row 2 -->
  <line class="border" x1="300" y1="418" x2="1320" y2="418"/>
  <circle class="primary-light" cx="360" cy="455" r="20"/>
  <text class="font-secondary" x="360" y="460" font-size="12" font-weight="600" text-anchor="middle" fill="#00529F">SM</text>
  <text class="font-secondary text-dark" x="395" y="450" font-size="13" font-weight="600">Sarah Miller</text>
  <text class="font-secondary text-medium" x="395" y="468" font-size="11">sarah.m@email.com</text>
  <text class="font-secondary text-dark" x="560" y="458" font-size="13">(555) 234-5678</text>
  <rect class="info-light" x="720" y="442" width="70" height="26" rx="13"/>
  <text class="font-secondary info" x="755" y="460" font-size="11" font-weight="600" text-anchor="middle">Referred</text>
  <rect class="success-light" x="880" y="442" width="55" height="26" rx="13"/>
  <text class="font-secondary success" x="907" y="460" font-size="11" font-weight="600" text-anchor="middle">Active</text>
  <text class="font-secondary text-dark" x="1000" y="458" font-size="13">Yesterday</text>

  <!-- Table Row 3 -->
  <line class="border" x1="300" y1="498" x2="1320" y2="498"/>
  <circle class="primary-light" cx="360" cy="535" r="20"/>
  <text class="font-secondary" x="360" y="540" font-size="12" font-weight="600" text-anchor="middle" fill="#00529F">RJ</text>
  <text class="font-secondary text-dark" x="395" y="530" font-size="13" font-weight="600">Robert Johnson</text>
  <text class="font-secondary text-medium" x="395" y="548" font-size="11">r.johnson@email.com</text>
  <text class="font-secondary text-dark" x="560" y="538" font-size="13">(555) 345-6789</text>
  <rect class="success-light" x="720" y="522" width="90" height="26" rx="13"/>
  <text class="font-secondary success" x="765" y="540" font-size="11" font-weight="600" text-anchor="middle">My Customer</text>
  <rect fill="#F2F2F2" x="880" y="522" width="60" height="26" rx="13"/>
  <text class="font-secondary text-medium" x="910" y="540" font-size="11" font-weight="600" text-anchor="middle">Inactive</text>
  <text class="font-secondary text-dark" x="1000" y="538" font-size="13">2 weeks ago</text>

  <!-- Table Row 4 -->
  <line class="border" x1="300" y1="578" x2="1320" y2="578"/>
  <circle class="primary-light" cx="360" cy="615" r="20"/>
  <text class="font-secondary" x="360" y="620" font-size="12" font-weight="600" text-anchor="middle" fill="#00529F">EW</text>
  <text class="font-secondary text-dark" x="395" y="610" font-size="13" font-weight="600">Emily Wilson</text>
  <text class="font-secondary text-medium" x="395" y="628" font-size="11">emily.w@email.com</text>
  <text class="font-secondary text-dark" x="560" y="618" font-size="13">(555) 456-7890</text>
  <rect class="warning-light" x="720" y="602" width="60" height="26" rx="13"/>
  <text class="font-secondary warning" x="750" y="620" font-size="11" font-weight="600" text-anchor="middle">Shared</text>
  <rect class="success-light" x="880" y="602" width="55" height="26" rx="13"/>
  <text class="font-secondary success" x="907" y="620" font-size="11" font-weight="600" text-anchor="middle">Active</text>
  <text class="font-secondary text-dark" x="1000" y="618" font-size="13">3 days ago</text>

  <!-- Table Row 5 -->
  <line class="border" x1="300" y1="658" x2="1320" y2="658"/>
  <circle class="primary-light" cx="360" cy="695" r="20"/>
  <text class="font-secondary" x="360" y="700" font-size="12" font-weight="600" text-anchor="middle" fill="#00529F">MB</text>
  <text class="font-secondary text-dark" x="395" y="690" font-size="13" font-weight="600">Michael Brown</text>
  <text class="font-secondary text-medium" x="395" y="708" font-size="11">m.brown@email.com</text>
  <text class="font-secondary text-dark" x="560" y="698" font-size="13">(555) 567-8901</text>
  <rect class="success-light" x="720" y="682" width="90" height="26" rx="13"/>
  <text class="font-secondary success" x="765" y="700" font-size="11" font-weight="600" text-anchor="middle">My Customer</text>
  <rect class="success-light" x="880" y="682" width="55" height="26" rx="13"/>
  <text class="font-secondary success" x="907" y="700" font-size="11" font-weight="600" text-anchor="middle">Active</text>
  <text class="font-secondary text-dark" x="1000" y="698" font-size="13">1 week ago</text>

  <!-- Pagination -->
  <line class="border" x1="300" y1="758" x2="1320" y2="758"/>
  <text class="font-secondary text-medium" x="340" y="785" font-size="13">Showing 1-5 of 248 customers</text>

  <!-- Pagination Controls -->
  <rect class="border-light" x="1100" y="768" width="32" height="32" rx="6" fill="white"/>
  <text class="font-secondary text-light" x="1116" y="790" font-size="14" text-anchor="middle">&lt;</text>

  <rect class="primary" x="1140" y="768" width="32" height="32" rx="6"/>
  <text x="1156" y="790" fill="white" font-size="13" text-anchor="middle" class="font-secondary">1</text>

  <rect class="border-light" x="1180" y="768" width="32" height="32" rx="6" fill="white"/>
  <text class="font-secondary text-dark" x="1196" y="790" font-size="13" text-anchor="middle">2</text>

  <rect class="border-light" x="1220" y="768" width="32" height="32" rx="6" fill="white"/>
  <text class="font-secondary text-dark" x="1236" y="790" font-size="13" text-anchor="middle">3</text>

  <rect class="border-light" x="1260" y="768" width="32" height="32" rx="6" fill="white"/>
  <text class="font-secondary text-dark" x="1276" y="790" font-size="14" text-anchor="middle">&gt;</text>
</svg>
