<svg width="1400" height="1000" viewBox="0 0 1400 1000" fill="none" xmlns="http://www.w3.org/2000/svg">
  <!-- Background -->
  <rect width="1400" height="1000" fill="#FAFAFA"/>

  <!-- Cover Photo -->
  <rect width="1400" height="280" fill="url(#coverGradient)"/>
  <defs>
    <linearGradient id="coverGradient" x1="0" y1="0" x2="1400" y2="280" gradientUnits="userSpaceOnUse">
      <stop offset="0%" stop-color="#00529F"/>
      <stop offset="100%" stop-color="#003366"/>
    </linearGradient>
  </defs>

  <!-- Decorative circles on cover -->
  <circle cx="250" cy="140" r="60" fill="#FFD520" opacity="0.1"/>
  <circle cx="1000" cy="100" r="40" fill="#FFD520" opacity="0.1"/>
  <circle cx="1200" cy="220" r="50" fill="#FFD520" opacity="0.1"/>

  <!-- Profile Card -->
  <g transform="translate(100, 210)">
    <!-- Card Background -->
    <rect width="1200" height="260" rx="12" fill="white" filter="url(#shadow)"/>
    <defs>
      <filter id="shadow" x="-20%" y="-20%" width="140%" height="140%">
        <feGaussianBlur in="SourceAlpha" stdDeviation="3"/>
        <feOffset dx="0" dy="2" result="offsetblur"/>
        <feComponentTransfer>
          <feFuncA type="linear" slope="0.2"/>
        </feComponentTransfer>
        <feMerge>
          <feMergeNode/>
          <feMergeNode in="SourceGraphic"/>
        </feMerge>
      </filter>
    </defs>

    <!-- Profile Photo -->
    <circle cx="112" cy="112" r="80" fill="url(#photoGradient)"/>
    <defs>
      <linearGradient id="photoGradient" x1="32" y1="32" x2="192" y2="192" gradientUnits="userSpaceOnUse">
        <stop offset="0%" stop-color="#E3F2FD"/>
        <stop offset="100%" stop-color="#BBDEFB"/>
      </linearGradient>
    </defs>
    <circle cx="112" cy="112" r="83" fill="none" stroke="white" stroke-width="6"/>
    <text x="112" y="130" font-family="Montserrat, sans-serif" font-size="48" font-weight="700" fill="#00529F" text-anchor="middle">MA</text>

    <!-- Profile Details -->
    <g transform="translate(230, 32)">
      <!-- Business Name -->
      <text x="0" y="30" font-family="Montserrat, sans-serif" font-size="32" font-weight="700" fill="#1A1A1A">Mike's Auto Repair</text>

      <!-- Verified Badge -->
      <g transform="translate(340, 8)">
        <rect width="90" height="24" rx="12" fill="#2E7D32"/>
        <circle cx="12" cy="12" r="6" fill="none" stroke="white" stroke-width="1.5"/>
        <polyline points="9,12 11,14 15,10" fill="none" stroke="white" stroke-width="1.5" stroke-linecap="round" stroke-linejoin="round"/>
        <text x="22" y="16" font-family="Lato, sans-serif" font-size="12" font-weight="600" fill="white">Verified</text>
      </g>

      <!-- Professional Title -->
      <text x="0" y="60" font-family="Lato, sans-serif" font-size="18" fill="#4D4D4D">Michael Anderson, Master Technician</text>

      <!-- Business Type Badge -->
      <g transform="translate(0, 70)">
        <rect width="145" height="28" rx="14" fill="#00529F"/>
        <text x="72.5" y="19" font-family="Lato, sans-serif" font-size="14" font-weight="600" fill="white" text-anchor="middle">Auto Repair Shop</text>
      </g>

      <!-- Rating Stars -->
      <g transform="translate(0, 115)">
        <text x="0" y="18" font-size="20" fill="#FFD520">★★★★★</text>
        <text x="120" y="18" font-family="Lato, sans-serif" font-size="16" font-weight="600" fill="#1A1A1A">4.9</text>
        <text x="160" y="18" font-family="Lato, sans-serif" font-size="14" fill="#666666">(127 reviews)</text>
      </g>

      <!-- Contact Buttons -->
      <g transform="translate(0, 155)">
        <!-- Call Button -->
        <rect width="140" height="48" rx="8" fill="#00529F"/>
        <g transform="translate(20, 14)">
          <path d="M2 3H6L8 8L5.5 9.5C6.57 11.67 8.33 13.43 10.5 14.5L12 12L17 14V18C17 18.53 16.79 19.04 16.41 19.41C16.04 19.79 15.53 20 15 20C11.1 19.76 7.42 18.11 4.66 15.34C1.89 12.58 0.24 8.9 0 5C0 4.47 0.21 3.96 0.59 3.59C0.96 3.21 1.47 3 2 3Z" fill="white" transform="scale(0.9)"/>
        </g>
        <text x="45" y="30" font-family="Lato, sans-serif" font-size="16" font-weight="600" fill="white">Call Now</text>

        <!-- Email Button -->
        <g transform="translate(155, 0)">
          <rect width="120" height="48" rx="8" fill="white" stroke="#00529F" stroke-width="2"/>
          <g transform="translate(15, 14)">
            <rect x="3" y="4" width="14" height="12" rx="1" fill="none" stroke="#00529F" stroke-width="1.5"/>
            <path d="M3 4L10 9L17 4" stroke="#00529F" stroke-width="1.5" fill="none"/>
          </g>
          <text x="60" y="30" font-family="Lato, sans-serif" font-size="16" font-weight="600" fill="#00529F" text-anchor="middle">Email</text>
        </g>

        <!-- Inquiry Button -->
        <g transform="translate(290, 0)">
          <rect width="150" height="48" rx="8" fill="#FFD520"/>
          <g transform="translate(15, 14)">
            <circle cx="10" cy="10" r="9" stroke="#1A1A1A" stroke-width="1.5" fill="none"/>
            <path d="M10 6V10L13 13" stroke="#1A1A1A" stroke-width="1.5" stroke-linecap="round" fill="none"/>
          </g>
          <text x="75" y="30" font-family="Lato, sans-serif" font-size="16" font-weight="600" fill="#1A1A1A" text-anchor="middle">Send Inquiry</text>
        </g>
      </g>
    </g>
  </g>

  <!-- Main Content Area -->
  <g transform="translate(100, 510)">
    <!-- About Card -->
    <rect width="760" height="320" rx="12" fill="white" filter="url(#cardShadow)"/>
    <defs>
      <filter id="cardShadow" x="-10%" y="-10%" width="120%" height="120%">
        <feGaussianBlur in="SourceAlpha" stdDeviation="2"/>
        <feOffset dx="0" dy="1" result="offsetblur"/>
        <feComponentTransfer>
          <feFuncA type="linear" slope="0.15"/>
        </feComponentTransfer>
        <feMerge>
          <feMergeNode/>
          <feMergeNode in="SourceGraphic"/>
        </feMerge>
      </filter>
    </defs>

    <text x="24" y="45" font-family="Montserrat, sans-serif" font-size="24" font-weight="700" fill="#1A1A1A">About</text>
    <line x1="24" y1="58" x2="736" y2="58" stroke="#E5E5E5" stroke-width="2"/>

    <!-- About Text -->
    <text x="24" y="90" font-family="Lato, sans-serif" font-size="16" fill="#4D4D4D">
      <tspan x="24" dy="0">Mike's Auto Repair has been serving the greater Portland area for over 25 years.</tspan>
      <tspan x="24" dy="26">We specialize in comprehensive automotive services, from routine maintenance to</tspan>
      <tspan x="24" dy="26">complex engine diagnostics and repairs. Our team of ASE-certified technicians is</tspan>
      <tspan x="24" dy="26">committed to providing honest, reliable service at fair prices.</tspan>
    </text>

    <text x="24" y="210" font-family="Lato, sans-serif" font-size="16" fill="#4D4D4D">
      <tspan x="24" dy="0">We pride ourselves on transparency and customer education. We'll always explain</tspan>
      <tspan x="24" dy="26">what needs to be done, why it needs to be done, and provide you with options.</tspan>
    </text>

    <!-- Info Grid -->
    <g transform="translate(24, 265)">
      <text x="0" y="0" font-family="Lato, sans-serif" font-size="12" font-weight="600" fill="#666666" letter-spacing="0.5">YEARS IN BUSINESS</text>
      <text x="0" y="20" font-family="Lato, sans-serif" font-size="16" font-weight="600" fill="#1A1A1A">25+ Years</text>

      <text x="380" y="0" font-family="Lato, sans-serif" font-size="12" font-weight="600" fill="#666666" letter-spacing="0.5">SERVICE AREA</text>
      <text x="380" y="20" font-family="Lato, sans-serif" font-size="16" font-weight="600" fill="#1A1A1A">Portland Metro Area</text>
    </g>

    <!-- Specialties Card -->
    <g transform="translate(0, 350)">
      <rect width="760" height="380" rx="12" fill="white" filter="url(#cardShadow)"/>

      <text x="24" y="45" font-family="Montserrat, sans-serif" font-size="24" font-weight="700" fill="#1A1A1A">Specialties &amp; Services</text>
      <line x1="24" y1="58" x2="736" y2="58" stroke="#E5E5E5" stroke-width="2"/>

      <!-- Specialty Items Grid -->
      <g transform="translate(24, 80)">
        <!-- Row 1 -->
        <g transform="translate(0, 0)">
          <rect width="346" height="52" rx="8" fill="#FAFAFA"/>
          <rect x="0" y="0" width="3" height="52" rx="1.5" fill="#00529F"/>
          <circle cx="30" cy="26" r="12" fill="none" stroke="#00529F" stroke-width="2"/>
          <line x1="30" y1="18" x2="30" y2="26" stroke="#00529F" stroke-width="2"/>
          <line x1="30" y1="26" x2="35" y2="31" stroke="#00529F" stroke-width="2"/>
          <text x="50" y="30" font-family="Lato, sans-serif" font-size="14" font-weight="500" fill="#333333">Engine Diagnostics &amp; Repair</text>
        </g>

        <g transform="translate(366, 0)">
          <rect width="346" height="52" rx="8" fill="#FAFAFA"/>
          <rect x="0" y="0" width="3" height="52" rx="1.5" fill="#00529F"/>
          <circle cx="30" cy="26" r="12" fill="none" stroke="#00529F" stroke-width="2"/>
          <text x="50" y="30" font-family="Lato, sans-serif" font-size="14" font-weight="500" fill="#333333">Brake Service &amp; Repair</text>
        </g>

        <!-- Row 2 -->
        <g transform="translate(0, 64)">
          <rect width="346" height="52" rx="8" fill="#FAFAFA"/>
          <rect x="0" y="0" width="3" height="52" rx="1.5" fill="#00529F"/>
          <circle cx="30" cy="26" r="12" fill="none" stroke="#00529F" stroke-width="2"/>
          <text x="50" y="30" font-family="Lato, sans-serif" font-size="14" font-weight="500" fill="#333333">Transmission Service</text>
        </g>

        <g transform="translate(366, 64)">
          <rect width="346" height="52" rx="8" fill="#FAFAFA"/>
          <rect x="0" y="0" width="3" height="52" rx="1.5" fill="#00529F"/>
          <circle cx="30" cy="26" r="12" fill="none" stroke="#00529F" stroke-width="2"/>
          <text x="50" y="30" font-family="Lato, sans-serif" font-size="14" font-weight="500" fill="#333333">Electrical Systems</text>
        </g>

        <!-- Row 3 -->
        <g transform="translate(0, 128)">
          <rect width="346" height="52" rx="8" fill="#FAFAFA"/>
          <rect x="0" y="0" width="3" height="52" rx="1.5" fill="#00529F"/>
          <circle cx="30" cy="26" r="12" fill="none" stroke="#00529F" stroke-width="2"/>
          <text x="50" y="30" font-family="Lato, sans-serif" font-size="14" font-weight="500" fill="#333333">Alignment &amp; Suspension</text>
        </g>

        <g transform="translate(366, 128)">
          <rect width="346" height="52" rx="8" fill="#FAFAFA"/>
          <rect x="0" y="0" width="3" height="52" rx="1.5" fill="#00529F"/>
          <circle cx="30" cy="26" r="12" fill="none" stroke="#00529F" stroke-width="2"/>
          <text x="50" y="30" font-family="Lato, sans-serif" font-size="14" font-weight="500" fill="#333333">Pre-Purchase Inspections</text>
        </g>
      </g>

      <!-- Certifications -->
      <text x="24" y="290" font-family="Montserrat, sans-serif" font-size="18" font-weight="600" fill="#1A1A1A">Certifications</text>

      <g transform="translate(24, 305)">
        <g transform="translate(0, 0)">
          <path d="M10 1L12.245 7.755L19 10L12.245 12.245L10 19L7.755 12.245L1 10L7.755 7.755L10 1Z" fill="#FFD520" transform="scale(0.8)"/>
          <text x="25" y="13" font-family="Lato, sans-serif" font-size="14" fill="#4D4D4D">ASE Master Certified Technician</text>
        </g>
        <g transform="translate(0, 25)">
          <path d="M10 1L12.245 7.755L19 10L12.245 12.245L10 19L7.755 12.245L1 10L7.755 7.755L10 1Z" fill="#FFD520" transform="scale(0.8)"/>
          <text x="25" y="13" font-family="Lato, sans-serif" font-size="14" fill="#4D4D4D">Oregon DEQ Emissions Certified</text>
        </g>
        <g transform="translate(0, 50)">
          <path d="M10 1L12.245 7.755L19 10L12.245 12.245L10 19L7.755 12.245L1 10L7.755 7.755L10 1Z" fill="#FFD520" transform="scale(0.8)"/>
          <text x="25" y="13" font-family="Lato, sans-serif" font-size="14" fill="#4D4D4D">AAA Approved Auto Repair</text>
        </g>
      </g>
    </g>
  </g>

  <!-- Sidebar -->
  <g transform="translate(880, 510)">
    <!-- Contact Card -->
    <rect width="420" height="340" rx="12" fill="white" filter="url(#cardShadow)"/>

    <text x="24" y="45" font-family="Montserrat, sans-serif" font-size="24" font-weight="700" fill="#1A1A1A">Contact Information</text>
    <line x1="24" y1="58" x2="396" y2="58" stroke="#E5E5E5" stroke-width="2"/>

    <!-- Contact Items -->
    <g transform="translate(24, 80)">
      <!-- Phone -->
      <g>
        <path d="M2 3H6L8 8L5.5 9.5C6.57 11.67 8.33 13.43 10.5 14.5L12 12L17 14V18C17 18.53 16.79 19.04 16.41 19.41C16.04 19.79 15.53 20 15 20C11.1 19.76 7.42 18.11 4.66 15.34C1.89 12.58 0.24 8.9 0 5C0 4.47 0.21 3.96 0.59 3.59C0.96 3.21 1.47 3 2 3Z" fill="#00529F"/>
        <text x="30" y="5" font-family="Lato, sans-serif" font-size="12" font-weight="600" fill="#666666" letter-spacing="0.5">PHONE</text>
        <text x="30" y="25" font-family="Lato, sans-serif" font-size="16" fill="#1A1A1A">(503) 555-1234</text>
      </g>

      <!-- Email -->
      <g transform="translate(0, 60)">
        <rect x="3" y="0" width="14" height="10" rx="1" fill="none" stroke="#00529F" stroke-width="1.2"/>
        <path d="M3 0L10 5L17 0" stroke="#00529F" stroke-width="1.2" fill="none"/>
        <text x="30" y="3" font-family="Lato, sans-serif" font-size="12" font-weight="600" fill="#666666" letter-spacing="0.5">EMAIL</text>
        <text x="30" y="23" font-family="Lato, sans-serif" font-size="16" fill="#1A1A1A">info@mikesautorepair.com</text>
      </g>

      <!-- Address -->
      <g transform="translate(0, 120)">
        <circle cx="10" cy="8" r="3" stroke="#00529F" stroke-width="1.5" fill="none"/>
        <path d="M10 1C6.13 1 3 4.13 3 8C3 11.87 6.13 17 10 17C13.87 17 17 11.87 17 8C17 4.13 13.87 1 10 1Z" stroke="#00529F" stroke-width="1.5" fill="none" transform="scale(0.9)"/>
        <text x="30" y="3" font-family="Lato, sans-serif" font-size="12" font-weight="600" fill="#666666" letter-spacing="0.5">ADDRESS</text>
        <text x="30" y="23" font-family="Lato, sans-serif" font-size="16" fill="#1A1A1A">1234 Main Street</text>
        <text x="30" y="43" font-family="Lato, sans-serif" font-size="16" fill="#1A1A1A">Portland, OR 97201</text>
      </g>
    </g>

    <!-- Business Hours Card -->
    <g transform="translate(0, 370)">
      <rect width="420" height="360" rx="12" fill="white" filter="url(#cardShadow)"/>

      <text x="24" y="45" font-family="Montserrat, sans-serif" font-size="24" font-weight="700" fill="#1A1A1A">Business Hours</text>
      <line x1="24" y1="58" x2="396" y2="58" stroke="#E5E5E5" stroke-width="2"/>

      <!-- Hours List -->
      <g transform="translate(24, 78)">
        <g transform="translate(0, 0)">
          <text x="0" y="15" font-family="Lato, sans-serif" font-size="14" font-weight="600" fill="#00529F">Monday</text>
          <text x="372" y="15" font-family="Lato, sans-serif" font-size="14" fill="#4D4D4D" text-anchor="end">8:00 AM - 6:00 PM</text>
        </g>
        <g transform="translate(0, 30)">
          <text x="0" y="15" font-family="Lato, sans-serif" font-size="14" font-weight="600" fill="#333333">Tuesday</text>
          <text x="372" y="15" font-family="Lato, sans-serif" font-size="14" fill="#4D4D4D" text-anchor="end">8:00 AM - 6:00 PM</text>
        </g>
        <g transform="translate(0, 60)">
          <text x="0" y="15" font-family="Lato, sans-serif" font-size="14" font-weight="600" fill="#333333">Wednesday</text>
          <text x="372" y="15" font-family="Lato, sans-serif" font-size="14" fill="#4D4D4D" text-anchor="end">8:00 AM - 6:00 PM</text>
        </g>
        <g transform="translate(0, 90)">
          <text x="0" y="15" font-family="Lato, sans-serif" font-size="14" font-weight="600" fill="#333333">Thursday</text>
          <text x="372" y="15" font-family="Lato, sans-serif" font-size="14" fill="#4D4D4D" text-anchor="end">8:00 AM - 6:00 PM</text>
        </g>
        <g transform="translate(0, 120)">
          <text x="0" y="15" font-family="Lato, sans-serif" font-size="14" font-weight="600" fill="#333333">Friday</text>
          <text x="372" y="15" font-family="Lato, sans-serif" font-size="14" fill="#4D4D4D" text-anchor="end">8:00 AM - 6:00 PM</text>
        </g>
        <g transform="translate(0, 150)">
          <text x="0" y="15" font-family="Lato, sans-serif" font-size="14" font-weight="600" fill="#333333">Saturday</text>
          <text x="372" y="15" font-family="Lato, sans-serif" font-size="14" fill="#4D4D4D" text-anchor="end">9:00 AM - 3:00 PM</text>
        </g>
        <g transform="translate(0, 180)">
          <text x="0" y="15" font-family="Lato, sans-serif" font-size="14" font-weight="600" fill="#333333">Sunday</text>
          <text x="372" y="15" font-family="Lato, sans-serif" font-size="14" fill="#4D4D4D" text-anchor="end">Closed</text>
        </g>
      </g>

      <!-- Map Placeholder -->
      <g transform="translate(24, 280)">
        <rect width="372" height="50" rx="8" fill="#F2F2F2" stroke="#CCCCCC" stroke-width="2" stroke-dasharray="4,4"/>
        <text x="186" y="32" font-family="Lato, sans-serif" font-size="14" fill="#999999" text-anchor="middle">📍 Map View</text>
      </g>
    </g>
  </g>
</svg>
